<?xml version="1.0" encoding="UTF-8"?>
<svg xmlns="http://www.w3.org/2000/svg" xmlns:xlink="http://www.w3.org/1999/xlink" width="13pt" height="13pt" viewBox="0 0 13 13" version="1.1">
<g id="surface1">
<path style=" stroke:none;fill-rule:nonzero;fill:rgb(0%,0%,0%);fill-opacity:1;" d="M 0.589844 5.488281 L 2.367188 4.457031 L 6.257812 6.703125 L 4.480469 7.734375 Z M 6.394531 11.402344 L 2.503906 9.15625 L 2.503906 6.902344 L 4.414062 8.007812 C 4.433594 8.019531 4.457031 8.027344 4.480469 8.027344 C 4.503906 8.027344 4.527344 8.019531 4.550781 8.007812 L 6.394531 6.933594 Z M 10.554688 9.15625 L 6.660156 11.402344 L 6.664062 6.9375 L 8.507812 8.007812 C 8.550781 8.03125 8.601562 8.03125 8.640625 8.007812 L 10.554688 6.90625 Z M 12.464844 5.488281 L 8.574219 7.734375 L 6.796875 6.703125 L 10.6875 4.457031 "/>
<path style=" stroke:none;fill-rule:nonzero;fill:rgb(0%,0%,0%);fill-opacity:1;" d="M 8.894531 3.511719 C 9.007812 3.230469 9.0625 3.121094 9.179688 2.9375 C 9.839844 1.886719 11.414062 1.796875 11.414062 1.796875 C 9.46875 1.078125 7.8125 2.988281 7.8125 2.988281 L 6.941406 2.570312 L 7.355469 5.417969 L 9.835938 3.960938 Z M 8.894531 3.511719 "/>
<path style=" stroke:none;fill-rule:nonzero;fill:rgb(0%,0%,0%);fill-opacity:1;" d="M 4.328125 3.511719 C 4.21875 3.230469 4.164062 3.121094 4.046875 2.9375 C 3.382812 1.886719 1.8125 1.796875 1.8125 1.796875 C 3.757812 1.078125 5.410156 2.988281 5.410156 2.988281 L 6.28125 2.570312 L 5.867188 5.417969 L 3.386719 3.960938 Z M 4.328125 3.511719 "/>
</g>
</svg>
